{"title":"The Big Bang Theory S09 Season 9 720p 5.1Ch Web-DL DeeJayAhmed","uid":14629081,"size":3737991668,"categoryP":"other","categoryS":"other","magnet":"?xt=urn:btih:5994a71f09c6fbdc56e0c42c6d0543445974b144&amp;dn=The+Big+Bang+Theory+S09+Season+9+720p+5.1Ch+Web-DL+DeeJayAhmed&amp;tr=udp%3A%2F%2Ftracker.leechers-paradise.org%3A6969&amp;tr=udp%3A%2F%2Fzer0day.ch%3A1337&amp;tr=udp%3A%2F%2Fopen.demonii.com%3A1337&amp;tr=udp%3A%2F%2Ftracker.coppersurfer.tk%3A6969&amp;tr=udp%3A%2F%2Fexodus.desync.com%3A6969","seeders":13,"leechers":5,"uploader":"DeeJayPirate","files":51,"time":1463349670,"description":"DeeJayAhmed  \nhttps://www.DeeJayAhmed.com\r\n\r\nKeep Seeding!!=)) \r\nDo Comment On The A/V Quality Considering The Size Of The File..!\r\nHelp Me By Donating Bitcoins : 14i1UCWye2SCjoAHR5u6LDswWgAy55dxAv\r\n\r\nVideo \r\nID : 1 \r\nFormat : AVC \r\nFormat/Info : Advanced Video Codec \r\nFormat profile :    \r\nFormat settings, CABAC : Yes \r\nFormat settings, ReFrames : 8 frames \r\nCodec ID : V_MPEG4/ISO/AVC \r\nDuration : 20mn 22s \r\nBit rate : 948 Kbps \r\nWidth : 1 280 pixels \r\nHeight : 718 pixels \r\nDisplay aspect ratio : 16:9 \r\nFrame rate mode : Constant \r\nFrame rate : 23.976 (24000/1001) fps \r\nColor space : YUV \r\nChroma subsampling : 4:2:0 \r\nBit depth : 8 bits \r\nScan type : Progressive \r\nBits/(Pixel*Frame) : 0.043 \r\nStream size : 138 MiB (90%) \r\nDefault : Yes \r\nForced : No \r\n\r\nAudio \r\nID : 2 \r\nFormat : AAC \r\nFormat/Info : Advanced Audio Codec \r\nFormat profile : HE-AAC / LC \r\nCodec ID : A_AAC \r\nDuration : 20mn 22s \r\nBit rate : 103 Kbps \r\nChannel(s) : 6 channels \r\nChannel positions : Front: L C R, Side: L R, LFE \r\nSampling rate : 48.0 KHz / 24.0 KHz \r\nFrame rate : 23.438 fps (1024 spf) \r\nCompression mode : Lossy \r\nDelay relative to video : 31ms \r\nStream size : 15.0 MiB (10%) \r\nLanguage : English \r\nDefault : Yes \r\nForced : No","torrent":{"xt":"urn:btih:5994a71f09c6fbdc56e0c42c6d0543445974b144","amp;dn":"The+Big+Bang+Theory+S09+Season+9+720p+5.1Ch+Web-DL+DeeJayAhmed","amp;tr":["udp%3A%2F%2Ftracker.leechers-paradise.org%3A6969","udp%3A%2F%2Fzer0day.ch%3A1337","udp%3A%2F%2Fopen.demonii.com%3A1337","udp%3A%2F%2Ftracker.coppersurfer.tk%3A6969","udp%3A%2F%2Fexodus.desync.com%3A6969"],"infoHash":"5994a71f09c6fbdc56e0c42c6d0543445974b144","infoHashBuffer":{"type":"Buffer","data":[89,148,167,31,9,198,251,220,86,224,196,44,109,5,67,68,89,116,177,68]},"announce":[],"urlList":[]}}